<svg id="Layer_1" enable-background="new 0 0 512 512" height="512" viewBox="0 0 512 512" width="512" xmlns="http://www.w3.org/2000/svg"><g><path d="m456 256c0-110.457-89.543-200-200-200s-200 89.543-200 200" fill="#fffbdf"/><path d="m416 256c0-88.366-71.634-160-160-160s-160 71.634-160 160" fill="#ffe6b4"/><path d="m136 256c0-66.274 53.726-120 120-120s120 53.726 120 120" fill="#ffad95"/><path d="m10 296h492v160h-492z" fill="#ccf5fc"/><path d="m10 256h492v40h-492z" fill="#ffe6b4"/><g fill="#ff764e"><path d="m502 286h-492c-5.523 0-10 4.477-10 10s4.477 10 10 10h492c5.523 0 10-4.477 10-10s-4.477-10-10-10z"/><path d="m10 266h492c5.523 0 10-4.477 10-10s-4.477-10-10-10h-36.235c-5.237-111.17-97.323-200-209.765-200s-204.528 88.83-209.765 200h-36.235c-5.523 0-10 4.477-10 10s4.477 10 10 10zm246-200c101.412 0 184.522 79.863 189.74 180h-379.48c5.218-100.137 88.328-180 189.74-180z"/><path d="m502 446h-492c-5.523 0-10 4.477-10 10s4.477 10 10 10h492c5.523 0 10-4.477 10-10s-4.477-10-10-10z"/></g><g fill="#fff"><path d="m226 376c0-5.523-4.477-10-10-10h-160c-5.523 0-10 4.477-10 10s4.477 10 10 10h160c5.523 0 10-4.477 10-10z"/><path d="m176 346h160c5.523 0 10-4.477 10-10s-4.477-10-10-10h-160c-5.523 0-10 4.477-10 10s4.477 10 10 10z"/><path d="m336 406h-180c-5.523 0-10 4.477-10 10s4.477 10 10 10h180c5.523 0 10-4.477 10-10s-4.477-10-10-10z"/><path d="m454 366h-118c-5.523 0-10 4.477-10 10s4.477 10 10 10h118c5.523 0 10-4.477 10-10s-4.477-10-10-10z"/></g></g></svg>